<?xml version="1.0" encoding="UTF-8"?>
<svg xmlns="http://www.w3.org/2000/svg" width="1600" height="690" viewBox="0 0 1600 690" role="img" aria-labelledby="title desc">
<title id="title">Signed INT8 dot-product RTL showcase waveform</title>
<desc id="desc">Actual Icarus Verilog simulation waveform showing the two-stage ready-valid pipeline, signed results, and output backpressure.</desc>
<rect width="100%" height="100%" fill="#0b1020"/>
<style>text{font-family:ui-monospace,SFMono-Regular,Menlo,Consolas,monospace}.label{fill:#d7e0f0;font-size:15px}.small{fill:#93a4be;font-size:13px}.bus{fill:#e8eef8;font-size:13px}.title{fill:#f8fafc;font-size:24px;font-weight:700}.grid{stroke:#27324a;stroke-width:1}.wave{stroke:#47d18c;stroke-width:2;fill:none}.unknown{stroke:#f87171;stroke-width:2;fill:none}.separator{stroke:#202a40;stroke-width:1}</style>
<text class="title" x="24" y="38">Signed INT8 dot-product — RTL showcase</text>
<text class="small" x="24" y="66">Icarus-generated VCD · 30–270 ns · 10 ns clock · signed decimal output</text>
<text class="small" x="24" y="88">A low out_ready interval demonstrates stable out_data and propagated backpressure.</text>
<line class="grid" x1="220.00" y1="122" x2="220.00" y2="648"/>
<text class="small" x="224.00" y="114">30 ns</text>
<line class="grid" x1="276.33" y1="122" x2="276.33" y2="648"/>
<text class="small" x="280.33" y="114">40 ns</text>
<line class="grid" x1="332.67" y1="122" x2="332.67" y2="648"/>
<text class="small" x="336.67" y="114">50 ns</text>
<line class="grid" x1="389.00" y1="122" x2="389.00" y2="648"/>
<text class="small" x="393.00" y="114">60 ns</text>
<line class="grid" x1="445.33" y1="122" x2="445.33" y2="648"/>
<text class="small" x="449.33" y="114">70 ns</text>
<line class="grid" x1="501.67" y1="122" x2="501.67" y2="648"/>
<text class="small" x="505.67" y="114">80 ns</text>
<line class="grid" x1="558.00" y1="122" x2="558.00" y2="648"/>
<text class="small" x="562.00" y="114">90 ns</text>
<line class="grid" x1="614.33" y1="122" x2="614.33" y2="648"/>
<text class="small" x="618.33" y="114">100 ns</text>
<line class="grid" x1="670.67" y1="122" x2="670.67" y2="648"/>
<text class="small" x="674.67" y="114">110 ns</text>
<line class="grid" x1="727.00" y1="122" x2="727.00" y2="648"/>
<text class="small" x="731.00" y="114">120 ns</text>
<line class="grid" x1="783.33" y1="122" x2="783.33" y2="648"/>
<text class="small" x="787.33" y="114">130 ns</text>
<line class="grid" x1="839.67" y1="122" x2="839.67" y2="648"/>
<text class="small" x="843.67" y="114">140 ns</text>
<line class="grid" x1="896.00" y1="122" x2="896.00" y2="648"/>
<text class="small" x="900.00" y="114">150 ns</text>
<line class="grid" x1="952.33" y1="122" x2="952.33" y2="648"/>
<text class="small" x="956.33" y="114">160 ns</text>
<line class="grid" x1="1008.67" y1="122" x2="1008.67" y2="648"/>
<text class="small" x="1012.67" y="114">170 ns</text>
<line class="grid" x1="1065.00" y1="122" x2="1065.00" y2="648"/>
<text class="small" x="1069.00" y="114">180 ns</text>
<line class="grid" x1="1121.33" y1="122" x2="1121.33" y2="648"/>
<text class="small" x="1125.33" y="114">190 ns</text>
<line class="grid" x1="1177.67" y1="122" x2="1177.67" y2="648"/>
<text class="small" x="1181.67" y="114">200 ns</text>
<line class="grid" x1="1234.00" y1="122" x2="1234.00" y2="648"/>
<text class="small" x="1238.00" y="114">210 ns</text>
<line class="grid" x1="1290.33" y1="122" x2="1290.33" y2="648"/>
<text class="small" x="1294.33" y="114">220 ns</text>
<line class="grid" x1="1346.67" y1="122" x2="1346.67" y2="648"/>
<text class="small" x="1350.67" y="114">230 ns</text>
<line class="grid" x1="1403.00" y1="122" x2="1403.00" y2="648"/>
<text class="small" x="1407.00" y="114">240 ns</text>
<line class="grid" x1="1459.33" y1="122" x2="1459.33" y2="648"/>
<text class="small" x="1463.33" y="114">250 ns</text>
<line class="grid" x1="1515.67" y1="122" x2="1515.67" y2="648"/>
<text class="small" x="1519.67" y="114">260 ns</text>
<line class="grid" x1="1572.00" y1="122" x2="1572.00" y2="648"/>
<text class="small" x="1576.00" y="114">270 ns</text>
<rect x="0" y="142" width="1600" height="46" fill="#10172a"/>
<line class="separator" x1="0" y1="188" x2="1600" y2="188"/>
<text class="label" x="24" y="170.00">clk</text>
<path class="wave" d="M 220.00 176.00 H 248.17 M 248.17 176.00 V 154.00 M 248.17 154.00 H 276.33 M 276.33 154.00 V 176.00 M 276.33 176.00 H 304.50 M 304.50 176.00 V 154.00 M 304.50 154.00 H 332.67 M 332.67 154.00 V 176.00 M 332.67 176.00 H 360.83 M 360.83 176.00 V 154.00 M 360.83 154.00 H 389.00 M 389.00 154.00 V 176.00 M 389.00 176.00 H 417.17 M 417.17 176.00 V 154.00 M 417.17 154.00 H 445.33 M 445.33 154.00 V 176.00 M 445.33 176.00 H 473.50 M 473.50 176.00 V 154.00 M 473.50 154.00 H 501.67 M 501.67 154.00 V 176.00 M 501.67 176.00 H 529.83 M 529.83 176.00 V 154.00 M 529.83 154.00 H 558.00 M 558.00 154.00 V 176.00 M 558.00 176.00 H 586.17 M 586.17 176.00 V 154.00 M 586.17 154.00 H 614.33 M 614.33 154.00 V 176.00 M 614.33 176.00 H 642.50 M 642.50 176.00 V 154.00 M 642.50 154.00 H 670.67 M 670.67 154.00 V 176.00 M 670.67 176.00 H 698.83 M 698.83 176.00 V 154.00 M 698.83 154.00 H 727.00 M 727.00 154.00 V 176.00 M 727.00 176.00 H 755.17 M 755.17 176.00 V 154.00 M 755.17 154.00 H 783.33 M 783.33 154.00 V 176.00 M 783.33 176.00 H 811.50 M 811.50 176.00 V 154.00 M 811.50 154.00 H 839.67 M 839.67 154.00 V 176.00 M 839.67 176.00 H 867.83 M 867.83 176.00 V 154.00 M 867.83 154.00 H 896.00 M 896.00 154.00 V 176.00 M 896.00 176.00 H 924.17 M 924.17 176.00 V 154.00 M 924.17 154.00 H 952.33 M 952.33 154.00 V 176.00 M 952.33 176.00 H 980.50 M 980.50 176.00 V 154.00 M 980.50 154.00 H 1008.67 M 1008.67 154.00 V 176.00 M 1008.67 176.00 H 1036.83 M 1036.83 176.00 V 154.00 M 1036.83 154.00 H 1065.00 M 1065.00 154.00 V 176.00 M 1065.00 176.00 H 1093.17 M 1093.17 176.00 V 154.00 M 1093.17 154.00 H 1121.33 M 1121.33 154.00 V 176.00 M 1121.33 176.00 H 1149.50 M 1149.50 176.00 V 154.00 M 1149.50 154.00 H 1177.67 M 1177.67 154.00 V 176.00 M 1177.67 176.00 H 1205.83 M 1205.83 176.00 V 154.00 M 1205.83 154.00 H 1234.00 M 1234.00 154.00 V 176.00 M 1234.00 176.00 H 1262.17 M 1262.17 176.00 V 154.00 M 1262.17 154.00 H 1290.33 M 1290.33 154.00 V 176.00 M 1290.33 176.00 H 1318.50 M 1318.50 176.00 V 154.00 M 1318.50 154.00 H 1346.67 M 1346.67 154.00 V 176.00 M 1346.67 176.00 H 1374.83 M 1374.83 176.00 V 154.00 M 1374.83 154.00 H 1403.00 M 1403.00 154.00 V 176.00 M 1403.00 176.00 H 1431.17 M 1431.17 176.00 V 154.00 M 1431.17 154.00 H 1459.33 M 1459.33 154.00 V 176.00 M 1459.33 176.00 H 1487.50 M 1487.50 176.00 V 154.00 M 1487.50 154.00 H 1515.67 M 1515.67 154.00 V 176.00 M 1515.67 176.00 H 1543.83 M 1543.83 176.00 V 154.00 M 1543.83 154.00 H 1572.00"/>
<rect x="0" y="188" width="1600" height="46" fill="#0d1425"/>
<line class="separator" x1="0" y1="234" x2="1600" y2="234"/>
<text class="label" x="24" y="216.00">rst_n</text>
<path class="wave" d="M 220.00 222.00 H 276.33 M 276.33 222.00 V 200.00 M 276.33 200.00 H 1572.00"/>
<rect x="0" y="234" width="1600" height="46" fill="#10172a"/>
<line class="separator" x1="0" y1="280" x2="1600" y2="280"/>
<text class="label" x="24" y="262.00">in_valid</text>
<path class="wave" d="M 220.00 268.00 H 332.67 M 332.67 268.00 V 246.00 M 332.67 246.00 H 389.00 M 389.00 246.00 V 268.00 M 389.00 268.00 H 445.33 M 445.33 268.00 V 246.00 M 445.33 246.00 H 501.67 M 501.67 246.00 V 268.00 M 501.67 268.00 H 558.00 M 558.00 268.00 V 246.00 M 558.00 246.00 H 614.33 M 614.33 246.00 V 268.00 M 614.33 268.00 H 670.67 M 670.67 268.00 V 246.00 M 670.67 246.00 H 727.00 M 727.00 246.00 V 268.00 M 727.00 268.00 H 839.67 M 839.67 268.00 V 246.00 M 839.67 246.00 H 896.00 M 896.00 246.00 V 268.00 M 896.00 268.00 H 952.33 M 952.33 268.00 V 246.00 M 952.33 246.00 H 1234.00 M 1234.00 246.00 V 268.00 M 1234.00 268.00 H 1290.33 M 1290.33 268.00 V 246.00 M 1290.33 246.00 H 1346.67 M 1346.67 246.00 V 268.00 M 1346.67 268.00 H 1572.00"/>
<rect x="0" y="280" width="1600" height="46" fill="#0d1425"/>
<line class="separator" x1="0" y1="326" x2="1600" y2="326"/>
<text class="label" x="24" y="308.00">in_ready</text>
<path class="wave" d="M 220.00 292.00 H 867.83 M 867.83 292.00 V 314.00 M 867.83 314.00 H 1177.67 M 1177.67 314.00 V 292.00 M 1177.67 292.00 H 1572.00"/>
<rect x="0" y="326" width="1600" height="46" fill="#10172a"/>
<line class="separator" x1="0" y1="372" x2="1600" y2="372"/>
<text class="label" x="24" y="354.00">a_vec[31:0]</text>
<rect x="220.00" y="335.00" width="112.67" height="28" rx="3" fill="#14233a" stroke="#4c6a88"/>
<text class="bus" x="276.33" y="354.00" text-anchor="middle">0x00000000</text>
<rect x="332.67" y="335.00" width="112.67" height="28" rx="3" fill="#172b40" stroke="#4c6a88"/>
<text class="bus" x="389.00" y="354.00" text-anchor="middle">0x04030201</text>
<rect x="445.33" y="335.00" width="112.67" height="28" rx="3" fill="#14233a" stroke="#4c6a88"/>
<text class="bus" x="501.67" y="354.00" text-anchor="middle">0x80808080</text>
<rect x="558.00" y="335.00" width="112.67" height="28" rx="3" fill="#172b40" stroke="#4c6a88"/>
<text class="bus" x="614.33" y="354.00" text-anchor="middle">0xFCFDFEFF</text>
<rect x="670.67" y="335.00" width="169.00" height="28" rx="3" fill="#14233a" stroke="#4c6a88"/>
<text class="bus" x="755.17" y="354.00" text-anchor="middle">0x01FF7F80</text>
<rect x="839.67" y="335.00" width="112.67" height="28" rx="3" fill="#172b40" stroke="#4c6a88"/>
<text class="bus" x="896.00" y="354.00" text-anchor="middle">0xCE28E214</text>
<rect x="952.33" y="335.00" width="338.00" height="28" rx="3" fill="#14233a" stroke="#4c6a88"/>
<text class="bus" x="1121.33" y="354.00" text-anchor="middle">0x7F7F7F7F</text>
<rect x="1290.33" y="335.00" width="281.67" height="28" rx="3" fill="#172b40" stroke="#4c6a88"/>
<text class="bus" x="1431.17" y="354.00" text-anchor="middle">0x00000000</text>
<rect x="0" y="372" width="1600" height="46" fill="#0d1425"/>
<line class="separator" x1="0" y1="418" x2="1600" y2="418"/>
<text class="label" x="24" y="400.00">b_vec[31:0]</text>
<rect x="220.00" y="381.00" width="112.67" height="28" rx="3" fill="#14233a" stroke="#4c6a88"/>
<text class="bus" x="276.33" y="400.00" text-anchor="middle">0x00000000</text>
<rect x="332.67" y="381.00" width="112.67" height="28" rx="3" fill="#172b40" stroke="#4c6a88"/>
<text class="bus" x="389.00" y="400.00" text-anchor="middle">0x08070605</text>
<rect x="445.33" y="381.00" width="112.67" height="28" rx="3" fill="#14233a" stroke="#4c6a88"/>
<text class="bus" x="501.67" y="400.00" text-anchor="middle">0x80808080</text>
<rect x="558.00" y="381.00" width="112.67" height="28" rx="3" fill="#172b40" stroke="#4c6a88"/>
<text class="bus" x="614.33" y="400.00" text-anchor="middle">0x08070605</text>
<rect x="670.67" y="381.00" width="169.00" height="28" rx="3" fill="#14233a" stroke="#4c6a88"/>
<text class="bus" x="755.17" y="400.00" text-anchor="middle">0x01FF807F</text>
<rect x="839.67" y="381.00" width="112.67" height="28" rx="3" fill="#172b40" stroke="#4c6a88"/>
<text class="bus" x="896.00" y="400.00" text-anchor="middle">0x05FC03FE</text>
<rect x="952.33" y="381.00" width="338.00" height="28" rx="3" fill="#14233a" stroke="#4c6a88"/>
<text class="bus" x="1121.33" y="400.00" text-anchor="middle">0x7F7F7F7F</text>
<rect x="1290.33" y="381.00" width="281.67" height="28" rx="3" fill="#172b40" stroke="#4c6a88"/>
<text class="bus" x="1431.17" y="400.00" text-anchor="middle">0x00000000</text>
<rect x="0" y="418" width="1600" height="46" fill="#10172a"/>
<line class="separator" x1="0" y1="464" x2="1600" y2="464"/>
<text class="label" x="24" y="446.00">products_valid</text>
<path class="wave" d="M 220.00 452.00 H 360.83 M 360.83 452.00 V 430.00 M 360.83 430.00 H 417.17 M 417.17 430.00 V 452.00 M 417.17 452.00 H 473.50 M 473.50 452.00 V 430.00 M 473.50 430.00 H 529.83 M 529.83 430.00 V 452.00 M 529.83 452.00 H 586.17 M 586.17 452.00 V 430.00 M 586.17 430.00 H 642.50 M 642.50 430.00 V 452.00 M 642.50 452.00 H 698.83 M 698.83 452.00 V 430.00 M 698.83 430.00 H 755.17 M 755.17 430.00 V 452.00 M 755.17 452.00 H 867.83 M 867.83 452.00 V 430.00 M 867.83 430.00 H 1262.17 M 1262.17 430.00 V 452.00 M 1262.17 452.00 H 1318.50 M 1318.50 452.00 V 430.00 M 1318.50 430.00 H 1374.83 M 1374.83 430.00 V 452.00 M 1374.83 452.00 H 1572.00"/>
<rect x="0" y="464" width="1600" height="46" fill="#0d1425"/>
<line class="separator" x1="0" y1="510" x2="1600" y2="510"/>
<text class="label" x="24" y="492.00">result_valid</text>
<path class="wave" d="M 220.00 498.00 H 417.17 M 417.17 498.00 V 476.00 M 417.17 476.00 H 473.50 M 473.50 476.00 V 498.00 M 473.50 498.00 H 529.83 M 529.83 498.00 V 476.00 M 529.83 476.00 H 586.17 M 586.17 476.00 V 498.00 M 586.17 498.00 H 642.50 M 642.50 498.00 V 476.00 M 642.50 476.00 H 698.83 M 698.83 476.00 V 498.00 M 698.83 498.00 H 755.17 M 755.17 498.00 V 476.00 M 755.17 476.00 H 1318.50 M 1318.50 476.00 V 498.00 M 1318.50 498.00 H 1374.83 M 1374.83 498.00 V 476.00 M 1374.83 476.00 H 1431.17 M 1431.17 476.00 V 498.00 M 1431.17 498.00 H 1572.00"/>
<rect x="0" y="510" width="1600" height="46" fill="#10172a"/>
<line class="separator" x1="0" y1="556" x2="1600" y2="556"/>
<text class="label" x="24" y="538.00">out_valid</text>
<path class="wave" d="M 220.00 544.00 H 417.17 M 417.17 544.00 V 522.00 M 417.17 522.00 H 473.50 M 473.50 522.00 V 544.00 M 473.50 544.00 H 529.83 M 529.83 544.00 V 522.00 M 529.83 522.00 H 586.17 M 586.17 522.00 V 544.00 M 586.17 544.00 H 642.50 M 642.50 544.00 V 522.00 M 642.50 522.00 H 698.83 M 698.83 522.00 V 544.00 M 698.83 544.00 H 755.17 M 755.17 544.00 V 522.00 M 755.17 522.00 H 1318.50 M 1318.50 522.00 V 544.00 M 1318.50 544.00 H 1374.83 M 1374.83 544.00 V 522.00 M 1374.83 522.00 H 1431.17 M 1431.17 522.00 V 544.00 M 1431.17 544.00 H 1572.00"/>
<rect x="0" y="556" width="1600" height="46" fill="#0d1425"/>
<line class="separator" x1="0" y1="602" x2="1600" y2="602"/>
<text class="label" x="24" y="584.00">out_ready</text>
<path class="wave" d="M 220.00 568.00 H 783.33 M 783.33 568.00 V 590.00 M 783.33 590.00 H 1177.67 M 1177.67 590.00 V 568.00 M 1177.67 568.00 H 1572.00"/>
<rect x="0" y="602" width="1600" height="46" fill="#10172a"/>
<line class="separator" x1="0" y1="648" x2="1600" y2="648"/>
<text class="label" x="24" y="630.00">out_data[17:0]</text>
<rect x="220.00" y="611.00" width="197.17" height="28" rx="3" fill="#14233a" stroke="#4c6a88"/>
<text class="bus" x="318.58" y="630.00" text-anchor="middle">0</text>
<rect x="417.17" y="611.00" width="112.67" height="28" rx="3" fill="#172b40" stroke="#4c6a88"/>
<text class="bus" x="473.50" y="630.00" text-anchor="middle">70</text>
<rect x="529.83" y="611.00" width="112.67" height="28" rx="3" fill="#14233a" stroke="#4c6a88"/>
<text class="bus" x="586.17" y="630.00" text-anchor="middle">65536</text>
<rect x="642.50" y="611.00" width="112.67" height="28" rx="3" fill="#172b40" stroke="#4c6a88"/>
<text class="bus" x="698.83" y="630.00" text-anchor="middle">-70</text>
<rect x="755.17" y="611.00" width="450.67" height="28" rx="3" fill="#14233a" stroke="#4c6a88"/>
<text class="bus" x="980.50" y="630.00" text-anchor="middle">-32510</text>
<rect x="1205.83" y="611.00" width="56.33" height="28" rx="3" fill="#172b40" stroke="#4c6a88"/>
<text class="bus" x="1234.00" y="630.00" text-anchor="middle">-540</text>
<rect x="1262.17" y="611.00" width="112.67" height="28" rx="3" fill="#14233a" stroke="#4c6a88"/>
<text class="bus" x="1318.50" y="630.00" text-anchor="middle">64516</text>
<rect x="1374.83" y="611.00" width="197.17" height="28" rx="3" fill="#172b40" stroke="#4c6a88"/>
<text class="bus" x="1473.42" y="630.00" text-anchor="middle">0</text>
</svg>
